<?xml version="1.0" standalone="no"?>
<!DOCTYPE svg PUBLIC "-//W3C//DTD SVG 20010904//EN"
 "http://www.w3.org/TR/2001/REC-SVG-20010904/DTD/svg10.dtd">
<svg version="1.0" xmlns="http://www.w3.org/2000/svg"
 width="300.000000pt" height="300.000000pt" viewBox="0 0 300.000000 300.000000"
 preserveAspectRatio="xMidYMid meet">
<metadata>
Created by potrace 1.10, written by Peter Selinger 2001-2011
</metadata>
<g transform="translate(0.000000,300.000000) scale(0.100000,-0.100000)"
fill="#000000" stroke="none">
<path d="M1141 2937 c-7 -9 -38 -14 -93 -15 -245 -4 -370 -103 -428 -340 -11
-45 -29 -97 -40 -115 -29 -47 -26 -57 19 -57 l38 0 6 -67 c4 -38 7 -116 7
-175 0 -82 4 -116 19 -150 20 -46 68 -97 114 -120 l29 -14 -44 -29 c-96 -63
-177 -127 -173 -138 2 -7 -40 -41 -94 -77 -92 -61 -100 -64 -150 -61 -29 1
-66 -3 -81 -9 -35 -15 -63 -69 -54 -106 8 -31 58 -64 97 -64 20 0 30 -7 37
-25 7 -19 17 -25 40 -25 37 0 90 25 90 43 0 8 14 11 45 9 25 -2 45 -5 45 -6 0
-25 -63 -191 -77 -201 -11 -9 -43 -14 -80 -15 -80 0 -117 -14 -110 -40 4 -15
-6 -26 -47 -48 -149 -84 -236 -277 -208 -458 21 -132 82 -222 184 -274 143
-71 318 -18 413 126 49 73 76 152 82 241 3 40 9 73 13 73 26 0 12 118 -22 183
-11 22 -40 61 -64 87 -40 43 -55 70 -38 70 21 0 132 -142 170 -217 59 -118 60
-143 7 -188 -115 -98 -23 -172 143 -114 99 34 93 33 87 10 -4 -17 1 -24 26
-34 22 -8 31 -18 31 -34 0 -13 11 -29 25 -39 32 -21 82 -15 161 19 33 14 87
28 121 31 l63 6 19 -39 c29 -56 122 -136 185 -160 91 -34 175 -44 258 -32 150
23 266 108 334 246 32 66 37 86 42 170 4 85 7 95 24 95 32 0 128 38 163 64 38
29 60 76 51 110 -3 13 -28 48 -54 78 -26 29 -58 77 -69 105 -29 71 -69 121
-123 155 -41 26 -44 31 -41 66 1 20 6 42 11 47 30 40 50 168 31 204 -8 13 -2
23 26 46 25 19 34 23 30 12 -4 -9 -10 -24 -13 -32 -5 -11 1 -15 23 -15 42 0
115 40 138 76 11 18 25 40 32 50 10 15 10 12 2 -16 -5 -19 -9 -36 -9 -37 0 -2
7 -3 15 -3 31 0 72 29 101 72 16 24 41 55 55 69 72 68 50 187 -48 266 -97 78
-130 117 -153 189 -65 199 -188 314 -334 314 -24 0 -61 7 -81 16 -102 42 -230
36 -342 -16 -60 -27 -153 -102 -153 -123 0 -5 22 11 49 36 90 85 202 124 326
114 66 -5 154 -31 143 -42 -3 -3 -25 2 -49 12 -29 11 -74 16 -134 16 -75 0
-101 -4 -154 -26 -72 -30 -142 -78 -122 -85 7 -2 22 5 34 16 54 49 150 84 237
85 39 1 127 -13 155 -23 15 -6 35 -5 54 1 68 24 216 -40 257 -111 10 -16 22
-30 27 -30 5 0 6 -7 3 -16 -3 -8 -2 -13 3 -10 7 5 17 -8 26 -34 1 -3 7 -18 14
-34 6 -16 10 -35 7 -43 -3 -7 -2 -13 2 -13 4 0 19 -24 32 -54 14 -33 39 -68
64 -88 67 -55 137 -128 147 -155 12 -33 12 -103 -2 -103 -5 0 -8 -4 -5 -9 3
-5 -1 -14 -9 -21 -13 -11 -15 -7 -15 25 0 36 -45 135 -61 135 -5 0 2 -16 16
-36 26 -38 41 -109 31 -147 -6 -24 -83 -117 -98 -117 -4 0 -8 14 -8 31 0 37
-20 118 -30 124 -4 3 -4 -12 1 -33 12 -53 12 -54 -23 -107 -23 -34 -46 -54
-82 -71 -28 -13 -52 -22 -53 -20 -2 2 1 26 7 54 6 28 10 66 7 84 -4 31 -4 31
-5 -7 -2 -48 -22 -79 -63 -100 -27 -15 -31 -14 -69 11 -24 16 -53 27 -72 26
-17 0 -41 6 -52 14 -11 8 -16 14 -11 14 6 0 28 16 50 35 22 19 43 35 48 35 4
0 5 5 1 12 -5 8 1 9 22 5 16 -3 47 1 69 10 22 8 45 15 52 15 7 1 11 4 10 7 -3
12 35 61 44 55 5 -3 6 2 3 10 -3 8 -2 21 2 28 10 16 11 70 1 83 -4 6 -15 20
-25 33 -18 24 -102 44 -102 25 0 -5 -11 -15 -24 -21 -24 -11 -24 -10 -22 43 1
58 2 58 64 39 6 -2 12 0 12 5 0 5 -18 11 -39 15 -27 4 -48 16 -70 41 -17 20
-31 40 -31 45 0 19 -2 25 -10 35 -13 17 -32 115 -27 141 3 17 1 22 -5 16 -6
-6 -11 -54 -12 -106 0 -53 -2 -96 -4 -96 -2 0 -17 13 -35 30 -30 28 -32 34
-32 99 0 48 -3 65 -9 53 -15 -26 -9 -111 11 -144 21 -36 112 -83 93 -49 -5 11
-12 45 -14 77 -3 33 -3 50 0 39 20 -75 40 -121 66 -151 30 -34 31 -35 26 -129
l-5 -94 28 44 c45 71 117 75 146 8 12 -31 13 -44 3 -77 -23 -76 -115 -136
-166 -108 -15 8 -25 2 -55 -32 -47 -53 -135 -101 -216 -116 -111 -22 -240 17
-308 91 -58 65 -66 105 -44 240 14 80 29 91 29 20 0 -64 16 -106 45 -119 32
-15 31 -10 -5 26 -26 26 -30 38 -30 84 0 44 4 59 23 76 29 27 58 28 81 3 16
-17 16 -18 -7 -14 -30 6 -54 -18 -63 -61 -8 -46 13 -90 47 -94 59 -7 80 128
28 184 -24 26 -67 32 -87 12 -10 -10 -15 -10 -23 2 -7 11 -8 7 -3 -12 5 -22 3
-28 -10 -28 -13 0 -16 11 -16 58 0 31 4 62 8 68 16 25 59 38 114 35 55 -2 102
12 163 51 11 7 21 13 22 14 5 1 33 74 29 74 -2 0 -13 -15 -24 -34 -11 -19 -40
-45 -64 -59 -48 -28 -123 -44 -111 -24 4 7 22 35 40 64 44 69 43 82 -1 17 -35
-51 -52 -64 -86 -64 -10 0 -39 -16 -64 -35 l-46 -35 0 34 c0 47 13 77 52 122
25 28 28 34 11 26 -49 -26 -88 -124 -73 -181 10 -38 13 -136 6 -186 -2 -16 -7
-64 -10 -105 -7 -69 -5 -79 21 -130 27 -52 55 -77 116 -101 15 -6 27 -15 27
-19 0 -12 -33 -22 -39 -12 -3 5 -19 12 -34 16 -16 4 -48 25 -73 48 -28 26 -44
35 -44 25 0 -32 100 -107 143 -107 11 0 2 -20 -29 -66 -24 -36 -47 -76 -50
-90 -7 -26 -22 -32 -28 -11 -2 6 -16 58 -31 115 -43 162 -113 241 -238 273
l-48 12 28 17 c15 10 39 29 52 44 14 14 33 26 42 26 25 0 84 54 99 89 8 20 17
28 27 24 8 -3 12 -12 9 -19 -3 -8 -8 -20 -11 -27 -3 -8 3 -13 16 -14 16 -2 20
3 16 16 -2 10 0 43 4 74 7 43 6 67 -6 99 -17 49 -20 92 -5 83 6 -3 10 5 10 19
0 33 18 72 52 117 35 46 36 60 2 28 -14 -13 -29 -22 -32 -20 -7 3 -32 -55 -51
-119 -8 -28 -9 -23 -3 30 14 127 8 221 -16 267 -46 88 -118 147 -212 174 -25
7 -58 23 -73 36 -32 26 -50 29 -66 10z m-123 -34 c-10 -2 -26 -2 -35 0 -10 3
-2 5 17 5 19 0 27 -2 18 -5z m56 -5 c-3 -4 10 -8 28 -8 25 0 29 3 18 10 -11 7
-6 10 22 10 38 0 88 -17 100 -34 3 -5 20 -9 38 -8 18 0 33 -5 37 -14 3 -7 10
-11 15 -8 5 4 38 -22 72 -57 78 -80 100 -139 91 -238 -15 -150 -14 -164 7
-194 24 -33 39 -157 19 -157 -6 0 -11 3 -12 8 -8 92 -47 135 -109 119 -15 -4
-20 0 -21 16 -1 21 -2 21 -6 2 -3 -11 -16 -33 -29 -48 -13 -16 -24 -33 -24
-38 0 -6 -5 -7 -12 -3 -7 4 -8 3 -4 -4 4 -7 -2 -22 -13 -34 l-21 -22 -1 120
c0 65 -2 127 -4 137 -4 22 5 22 63 -5 49 -23 95 -53 147 -97 26 -23 25 -21 -5
12 -40 44 -97 80 -173 109 -68 27 -185 58 -218 58 -25 0 -26 2 -21 49 9 101
-43 151 -161 151 -102 0 -159 -49 -179 -156 -11 -58 -13 -60 -62 -84 -28 -13
-54 -26 -59 -28 -4 -2 0 11 10 30 31 62 33 68 33 96 0 45 36 130 79 187 43 57
130 108 201 119 28 4 25 2 -15 -12 -67 -23 -105 -45 -135 -77 -20 -22 -13 -19
33 13 39 27 79 45 128 56 38 9 73 15 77 15 4 -1 18 -1 32 0 20 1 22 3 10 11
-12 7 -10 9 7 7 12 0 19 -5 17 -9z m-88 -193 c23 -10 39 -26 49 -49 8 -20 15
-37 15 -40 0 -2 -39 -4 -87 -3 -49 0 -109 -3 -135 -7 -43 -6 -47 -5 -43 11 4
12 2 10 -6 -4 -6 -12 -20 -23 -30 -26 -16 -4 -18 -1 -12 21 8 36 42 77 78 95
39 20 126 21 171 2z m58 -127 c-1 -13 -3 -26 -3 -30 -1 -5 -19 -8 -42 -8 -35
0 -40 2 -34 19 3 11 1 22 -4 26 -6 3 -8 0 -5 -8 8 -21 -5 -26 -98 -37 -46 -6
-96 -15 -112 -20 -27 -9 -28 -9 -21 18 4 15 8 29 11 31 15 15 115 30 205 30
104 1 106 1 103 -21z m33 -62 c132 -24 160 -33 167 -59 3 -12 6 -84 6 -160 0
-106 3 -138 13 -135 6 2 31 33 54 68 49 73 57 80 98 80 36 0 48 -8 64 -37 16
-32 14 -53 -14 -110 -30 -58 -76 -87 -130 -81 -28 3 -35 0 -39 -18 -10 -39
-104 -132 -164 -161 -80 -39 -211 -45 -297 -13 -76 29 -149 98 -163 155 -5 22
-13 128 -16 236 l-5 197 77 20 c42 12 88 23 102 25 56 10 170 6 247 -7z m486
-1 c-3 -9 -8 -14 -10 -11 -3 3 -2 9 2 15 9 16 15 13 8 -4z m-933 -70 c0 -8 -7
-15 -15 -15 -16 0 -20 12 -8 23 11 12 23 8 23 -8z m1090 -70 c-7 -8 -18 -15
-24 -15 -6 0 -2 7 8 15 25 19 32 19 16 0z m30 -236 c0 -10 -7 -19 -15 -19 -15
0 -21 31 -9 43 11 10 24 -3 24 -24z m-27 -77 c-16 -11 -19 -9 -29 20 -16 46
-5 57 23 22 21 -27 22 -30 6 -42z m-468 -119 c-12 -50 -52 -100 -100 -123 -55
-27 -109 -28 -136 -4 -28 25 -24 44 11 44 46 0 133 37 176 75 48 42 58 43 49
8z m103 -20 c28 -13 52 -28 52 -34 0 -6 7 -8 16 -5 11 4 15 2 11 -8 -4 -9 -1
-13 6 -10 13 5 57 -85 57 -117 0 -10 4 -19 8 -19 7 0 18 -35 36 -122 6 -26 4
-28 -23 -28 -28 0 -29 1 -20 38 5 20 8 53 8 72 -1 25 -4 17 -10 -25 -12 -84
-48 -185 -65 -185 -17 0 -18 12 -3 27 28 28 -61 100 -128 104 -15 2 -38 -1
-50 -5 -32 -10 -30 8 11 98 19 42 33 76 30 76 -11 0 -85 -172 -80 -185 5 -15
-51 -65 -72 -65 -6 0 -12 -4 -14 -8 -1 -4 -20 -17 -40 -29 -33 -19 -41 -20
-83 -10 -41 11 -49 18 -76 67 -17 30 -37 84 -46 120 -9 36 -19 69 -24 74 -7 8
12 -87 27 -136 4 -13 0 -18 -13 -18 -10 0 -39 -11 -65 -24 l-48 -23 -6 33 c-9
50 -59 121 -99 141 l-36 19 73 50 c83 58 98 67 98 61 0 -2 -34 -28 -75 -58
-41 -29 -75 -55 -75 -56 0 -5 25 2 30 8 3 3 23 18 45 34 22 17 42 33 45 36 3
3 20 14 38 23 34 18 43 29 15 19 -15 -5 -16 -3 -5 8 10 11 20 11 57 1 25 -7
63 -12 85 -12 28 0 40 -4 40 -14 0 -8 12 -24 28 -36 54 -44 164 -7 218 73 18
25 34 44 37 41 2 -3 2 7 -1 21 -5 29 -2 29 86 -12z m751 -143 c13 0 -50 -80
-107 -137 -76 -76 -202 -62 -202 22 0 56 19 95 46 95 21 0 24 -3 18 -25 -4
-15 -2 -25 5 -25 6 0 11 11 11 24 0 20 6 24 50 29 27 3 69 15 92 25 37 16 45
17 59 6 8 -8 21 -14 28 -14z m108 -26 c65 -41 75 -140 26 -246 -36 -76 -65
-112 -127 -156 l-47 -34 7 26 c13 53 -40 138 -78 123 -9 -4 -7 -6 4 -6 51 -3
79 -115 36 -145 -30 -21 -41 -20 -28 3 23 44 0 110 -48 135 l-27 14 51 49 c45
42 116 143 100 143 -3 0 -21 -24 -40 -54 -19 -29 -50 -66 -70 -81 -19 -15 -38
-34 -40 -43 -5 -15 -17 -16 -122 -8 l-116 10 5 40 c4 23 15 68 26 101 11 33
18 61 16 64 -6 6 -24 -44 -43 -119 -9 -36 -17 -67 -19 -69 -1 -2 -20 12 -41
30 l-40 33 20 41 c25 48 74 121 100 147 10 10 32 18 53 18 19 0 35 -1 35 -2 0
-2 -6 -24 -14 -49 -25 -83 0 -128 78 -136 67 -8 127 25 182 100 68 94 101 109
161 71z m-1543 -69 c15 -14 36 -44 46 -67 l19 -43 -47 -21 c-94 -41 -202 -75
-222 -69 -44 14 -80 -18 -60 -55 11 -21 -9 -34 -36 -23 -13 5 -15 16 -11 52 5
42 4 44 -10 26 -8 -11 -12 -33 -10 -48 3 -21 0 -27 -12 -25 -12 3 -16 15 -15
50 0 49 -9 56 -20 13 -4 -14 -2 -34 4 -45 16 -30 -6 -25 -26 5 -13 20 -14 31
-5 57 10 31 10 32 -5 13 -8 -11 -14 -32 -11 -47 4 -30 -7 -38 -17 -12 -18 46
-3 90 37 110 34 18 115 13 160 -11 15 -8 27 -10 27 -5 0 5 -9 12 -20 15 -11 3
-20 9 -20 13 0 9 202 142 216 142 6 0 23 -11 38 -25z m709 -121 c20 -13 37
-31 37 -38 0 -8 -22 -34 -50 -59 -48 -43 -140 -86 -230 -106 -33 -7 -39 -6
-43 10 -6 21 -37 25 -55 7 -7 -7 -12 -25 -12 -40 0 -18 -5 -28 -15 -28 -18 0
-29 41 -20 77 5 21 4 25 -5 17 -11 -11 -16 -55 -9 -84 7 -27 -25 -16 -39 13
-10 21 -11 36 -3 58 5 16 6 29 2 29 -22 0 -29 -78 -9 -98 21 -21 2 -23 -23 -3
-20 16 -24 28 -23 66 1 35 -2 43 -9 30 -5 -9 -6 -35 -3 -56 5 -31 3 -37 -8
-33 -8 3 -20 19 -27 36 -11 27 -10 36 7 66 26 48 61 59 139 43 33 -7 66 -18
73 -24 9 -7 12 -7 10 0 -2 6 44 43 102 82 118 80 139 83 213 35z m-471 -75
c-42 -9 -70 -27 -77 -50 -5 -16 -13 -19 -33 -15 -15 3 -48 8 -74 12 -29 4 -48
11 -48 19 0 24 -66 35 -87 14 -6 -6 -25 -8 -48 -3 l-38 7 84 29 c46 15 86 29
89 30 3 1 17 -4 31 -11 24 -12 35 -9 105 21 l79 34 22 -40 21 -41 -26 -6z
m665 66 c19 -8 53 -31 74 -50 22 -19 47 -35 57 -35 67 0 241 -24 259 -36 27
-17 46 -79 32 -105 -16 -31 -107 -25 -209 12 -47 17 -108 34 -135 38 -33 4
-66 18 -95 38 -25 18 -57 35 -72 39 -16 3 -28 13 -28 21 0 13 10 15 57 10 38
-4 52 -3 43 3 -8 5 -32 10 -53 10 -34 0 -37 2 -27 20 6 10 16 18 23 15 6 -2
28 -6 47 -9 35 -5 35 -5 10 9 -14 8 -35 14 -48 15 -13 0 -20 4 -17 10 9 14 40
12 82 -5z m-827 -5 c0 -5 -7 -10 -16 -10 -8 0 -12 5 -9 10 3 6 10 10 16 10 5
0 9 -4 9 -10z m-242 -88 c15 -10 5 -42 -13 -42 -42 0 -75 14 -75 31 0 15 7 19
38 19 20 0 43 -4 50 -8z m148 -3 c3 -6 0 -15 -7 -20 -8 -5 -14 -26 -14 -51 -1
-51 -43 -188 -58 -188 -5 0 -3 -8 6 -18 10 -11 17 -35 17 -57 0 -45 -35 -168
-58 -203 -9 -14 -17 -31 -18 -38 -3 -22 -56 -158 -65 -168 -4 -5 -15 -6 -24
-3 -14 6 -14 9 1 38 23 46 50 126 90 269 l34 125 -21 16 -21 15 31 99 c17 55
31 105 31 112 0 8 7 29 14 48 15 35 47 48 62 24z m825 -17 c72 -37 109 -62
109 -74 0 -5 -5 -6 -11 -2 -8 5 -8 1 0 -14 16 -29 14 -36 -14 -66 -33 -35 -86
-35 -243 4 -68 17 -129 30 -136 30 -18 0 -127 -74 -159 -108 l-27 -28 -87 28
c-47 15 -88 30 -90 32 -3 3 13 14 36 25 27 14 59 21 98 21 68 0 129 15 140 34
5 8 43 23 86 35 81 22 153 55 197 90 32 26 36 26 101 -7z m-903 -9 c-2 -10 -8
-16 -13 -13 -6 3 -9 8 -7 13 4 13 -16 8 -21 -5 -2 -7 -8 -9 -13 -5 -10 10 14
27 39 27 12 0 17 -6 15 -17z m1642 -25 c-4 -18 -10 -43 -14 -55 -5 -14 -3 -23
3 -23 21 0 61 -78 76 -146 l14 -69 -5 58 c-5 61 -30 124 -63 154 -16 15 -18
21 -7 41 l12 23 41 -30 c80 -58 118 -128 138 -256 l13 -80 1 58 1 58 39 -45
c49 -57 56 -77 37 -115 -22 -42 -60 -68 -130 -90 -98 -30 -153 -34 -236 -16
-123 26 -169 53 -272 159 -96 98 -145 129 -225 142 -24 3 -49 2 -59 -5 -18
-10 -18 -10 2 -11 20 0 20 -1 5 -49 -15 -46 -17 -48 -28 -28 -37 67 13 136
145 199 81 38 87 40 126 28 22 -7 75 -15 116 -17 68 -5 81 -3 129 22 29 14 74
48 100 75 25 26 47 48 47 49 1 1 -1 -14 -6 -31z m-1432 6 c23 -5 32 -12 32
-26 0 -18 -1 -18 -16 -4 -18 18 -34 21 -34 6 0 -5 -4 -10 -10 -10 -6 0 -9 6
-7 13 1 7 -10 13 -28 14 -29 2 -29 2 -5 -7 20 -7 16 -8 -22 -7 -41 0 -48 3
-48 20 0 18 5 19 53 13 28 -4 67 -9 85 -12z m-323 -14 c9 -14 -62 -42 -86 -35
-27 9 -24 25 5 25 14 0 28 5 31 10 8 13 42 13 50 0z m620 -51 c0 -17 -6 -25
-22 -27 -17 -3 -23 2 -23 15 0 22 20 45 35 40 5 -2 10 -15 10 -28z m-292 5
c21 -4 27 -10 22 -21 -3 -9 2 -24 10 -33 14 -16 13 -19 -10 -34 -23 -15 -29
-15 -100 6 -77 23 -82 28 -65 73 10 26 13 27 63 20 28 -3 65 -8 80 -11z m936
-6 l46 -19 -80 -39 c-51 -25 -94 -55 -119 -82 -36 -41 -38 -46 -33 -93 4 -43
2 -54 -19 -78 -23 -27 -25 -27 -49 -11 -30 20 -32 31 -5 39 25 8 41 37 31 54
-5 7 2 23 18 40 41 44 94 155 89 184 -5 24 -3 26 35 25 23 0 61 -9 86 -20z
m-849 -41 c13 -4 12 -6 -2 -12 -26 -11 -48 1 -48 26 0 20 2 21 18 7 9 -9 24
-18 32 -21z m454 -33 c71 -17 128 -24 166 -22 l57 3 -19 -35 c-31 -54 -64 -85
-121 -110 -101 -44 -160 -62 -183 -55 -12 4 -11 1 4 -6 12 -7 22 -17 21 -23
-3 -23 2 -34 24 -58 13 -14 39 -55 58 -91 27 -53 32 -70 23 -84 -31 -50 -127
-80 -182 -58 -36 16 -41 22 -44 68 -1 28 -12 46 -40 74 -20 20 -35 40 -32 45
3 4 1 8 -5 8 -5 0 -20 23 -32 50 -12 28 -26 50 -30 50 -4 0 -11 21 -15 46 -9
65 12 104 88 160 71 53 116 75 138 69 8 -3 64 -16 124 -31z m-461 -65 c104
-31 114 -39 101 -72 -5 -15 -73 4 -278 77 -80 29 -80 29 -72 54 6 19 8 19 74
-4 37 -12 115 -37 175 -55z m-189 -42 c33 -34 101 -107 150 -162 50 -55 127
-138 172 -185 l82 -85 -8 -45 c-4 -25 -8 -40 -9 -34 0 6 -16 26 -34 45 -18 19
-108 120 -201 224 -93 105 -184 204 -202 222 -19 18 -34 36 -34 42 0 14 11 41
17 41 3 0 33 -28 67 -63z m46 18 c0 -2 -3 -11 -6 -20 -6 -14 -9 -13 -30 6 -32
30 -30 40 6 28 17 -6 30 -12 30 -14z m148 -47 c50 -16 89 -34 86 -39 -3 -6 -2
-15 3 -22 5 -7 15 -32 22 -56 15 -50 27 -72 89 -154 31 -41 42 -65 40 -84 -5
-41 -21 -37 -42 10 -10 23 -38 82 -62 130 -24 49 -44 99 -44 112 0 13 -5 27
-11 31 -8 4 -9 -5 -5 -32 10 -63 10 -65 54 -154 l42 -85 -72 75 c-40 41 -112
119 -160 174 -76 85 -86 101 -77 118 7 13 16 17 27 13 9 -4 59 -20 110 -37z
m-364 22 c19 -7 26 -17 26 -36 0 -21 -3 -25 -17 -18 -10 4 -54 9 -97 11 -44 1
-86 5 -93 7 -21 8 -15 34 10 39 44 8 146 7 171 -3z m1203 -19 l42 -19 -19 -49
c-10 -26 -26 -86 -35 -133 -24 -120 -27 -123 -64 -59 -40 70 -54 123 -48 179
12 101 40 119 124 81z m-241 -39 c-9 -28 -45 -41 -91 -32 -22 4 -31 8 -19 9
11 0 41 12 65 25 49 26 53 26 45 -2z m-956 -7 c6 -4 10 -14 8 -23 -2 -12 -16
-15 -68 -13 -249 8 -410 -331 -266 -558 31 -47 52 -66 106 -90 59 -27 114 -26
175 3 117 55 196 178 203 321 5 96 -6 141 -53 219 -23 39 -32 63 -26 73 6 12
16 4 45 -35 20 -27 43 -69 52 -93 16 -45 20 -150 8 -211 -4 -18 -7 -41 -8 -50
0 -9 -4 -14 -8 -12 -4 3 -9 -2 -9 -10 -2 -22 -3 -27 -21 -67 -18 -40 -103
-141 -112 -132 -3 4 -6 1 -6 -5 0 -16 -58 -45 -76 -38 -9 3 -12 1 -9 -4 3 -6
-4 -11 -17 -11 -13 -1 -39 -3 -59 -4 -20 -1 -41 -5 -47 -9 -6 -3 -13 -2 -17 4
-3 5 -13 10 -22 10 -33 0 -90 36 -141 88 -28 29 -50 58 -46 63 3 5 1 9 -4 9
-5 0 -17 25 -27 56 -14 43 -17 78 -13 153 5 105 29 174 85 248 29 38 123 117
130 109 2 -2 -18 -25 -46 -51 -49 -46 -111 -129 -111 -148 0 -6 12 8 27 31 36
53 105 132 116 132 14 0 37 27 29 34 -15 16 25 23 118 21 54 -2 103 -6 110
-10z m1380 -120 c11 -20 8 -32 -14 -82 -35 -76 -132 -237 -157 -259 -28 -25
-130 -32 -148 -10 -11 13 -11 16 1 16 21 0 64 49 83 92 8 21 31 105 50 188 19
82 39 159 45 171 12 21 14 19 70 -36 32 -31 63 -68 70 -80z m-1181 -31 c12
-30 21 -74 20 -97 -1 -41 -1 -40 -25 34 -17 56 -36 90 -67 125 -28 32 -42 56
-39 69 4 17 10 13 48 -28 23 -26 52 -72 63 -103z m598 68 c-6 -23 -14 -42 -17
-42 -5 0 -32 63 -27 65 13 7 52 22 54 21 1 -1 -4 -20 -10 -44z m87 40 c2 -4
-6 -32 -20 -62 -13 -30 -23 -63 -24 -72 0 -26 -13 -22 -32 10 -15 25 -15 31 0
79 15 46 20 53 44 53 15 0 29 -3 32 -8z m-900 -8 c8 -3 13 -11 10 -18 -3 -8
-27 -10 -78 -8 -88 5 -120 -9 -185 -77 -24 -25 -39 -36 -33 -25 20 38 104 104
151 118 49 15 109 20 135 10z m1106 -136 c0 -6 9 -23 21 -39 11 -16 18 -29 15
-29 -10 0 -111 67 -152 101 -22 19 -51 41 -63 49 -18 12 -22 21 -17 37 6 20
13 18 101 -44 52 -36 95 -70 95 -75z m-32 108 c5 -40 -10 -51 -42 -31 l-27 18
23 24 c27 29 42 25 46 -11z m-1182 -22 c-3 -8 -17 -57 -30 -107 -13 -51 -31
-105 -40 -122 -18 -34 -21 -71 -6 -80 18 -11 11 -20 -49 -70 -33 -27 -58 -51
-56 -54 2 -2 32 20 65 49 46 40 64 50 73 41 19 -19 72 -13 94 12 11 12 40 74
63 137 24 63 48 121 53 128 6 8 13 23 14 35 5 33 10 31 39 -15 111 -176 43
-428 -141 -521 -82 -41 -164 -29 -229 35 l-41 40 40 -30 c100 -76 208 -61 303
42 40 44 56 75 30 60 -8 -4 -10 -3 -5 2 5 5 14 9 20 9 7 0 20 23 30 50 25 71
19 204 -12 264 -25 49 -50 45 -31 -5 48 -123 20 -279 -67 -375 -18 -20 -29
-40 -25 -44 4 -5 2 -5 -4 -2 -6 4 -28 -3 -50 -13 -40 -21 -114 -27 -114 -10 0
5 -6 7 -14 4 -8 -3 -32 11 -55 31 -23 21 -41 33 -41 29 0 -5 -7 0 -15 10 -8
11 -15 25 -15 30 1 6 8 0 16 -14 8 -14 13 -18 10 -10 -33 102 -38 129 -34 190
9 116 75 227 163 273 40 21 69 22 61 1z m64 -3 c0 -11 -4 -22 -8 -25 -5 -3
-17 -39 -27 -80 -17 -66 -22 -76 -41 -76 l-22 0 26 100 c23 90 28 100 49 100
16 0 23 -6 23 -19z m40 -4 c0 -18 -52 -181 -61 -191 -5 -6 -11 -3 -14 6 -8 20
54 210 66 203 5 -4 9 -11 9 -18z m967 -42 c1 -1 -6 -23 -16 -51 -18 -44 -22
-49 -48 -46 -42 5 -45 13 -27 73 22 73 21 72 57 47 18 -12 33 -22 34 -23z
m-527 -157 c9 -14 6 -19 -16 -24 -14 -4 -36 -2 -50 5 -19 8 -24 18 -24 49 0
22 -8 50 -18 63 -54 73 -45 74 22 4 42 -44 81 -88 86 -97z m1037 132 c27 -17
81 -38 122 -48 l73 -17 -4 -70 c-3 -42 -14 -90 -27 -119 -13 -31 -18 -53 -12
-59 12 -12 45 49 37 69 -3 8 -2 13 3 10 13 -9 22 21 28 97 8 92 27 87 21 -6
-6 -93 -40 -169 -108 -241 -61 -64 -129 -97 -214 -102 -43 -3 -55 -2 -41 5 11
5 34 10 50 10 73 2 247 123 218 152 -8 8 -18 1 -38 -25 -15 -20 -31 -36 -36
-36 -4 0 -18 18 -30 40 -12 22 -25 38 -27 35 -3 -2 7 -22 21 -44 24 -37 25
-40 9 -55 -71 -64 -217 -74 -307 -21 l-48 28 24 18 c13 10 32 19 42 19 10 0
32 13 48 30 27 26 30 35 28 85 -3 60 14 93 31 65 15 -23 12 -50 -11 -124 -19
-61 -20 -69 -6 -83 37 -37 116 16 164 111 40 79 45 111 19 134 -11 10 -29 22
-38 25 -9 3 -29 23 -43 45 -22 34 -24 42 -14 70 6 18 12 32 14 32 2 0 25 -14
52 -30z m-457 -18 c0 -26 -27 -62 -47 -62 -27 0 -28 6 -8 54 14 32 18 35 35
26 11 -6 20 -14 20 -18z m-1317 -27 c-3 -9 -8 -14 -10 -11 -3 3 -2 9 2 15 9
16 15 13 8 -4z m1354 4 c18 -18 3 -49 -23 -49 -27 0 -27 0 -14 34 10 28 20 32
37 15z m378 -64 c17 -22 28 -49 26 -60 -8 -49 -66 -135 -92 -135 -6 0 -9 22
-7 59 2 37 -2 64 -10 74 -11 13 -9 24 13 67 15 29 30 49 34 44 4 -5 20 -27 36
-49z m-1306 -64 c1 -90 -5 -73 -11 29 -3 47 -2 74 2 60 5 -14 8 -54 9 -89z
m991 84 c0 -3 -9 -5 -20 -5 -11 0 -20 7 -20 15 0 13 4 14 20 5 11 -6 20 -13
20 -15z m649 -47 c0 -73 -31 -178 -66 -225 -13 -18 -22 -33 -19 -33 10 0 -46
-51 -97 -88 -76 -56 -110 -67 -212 -67 -78 0 -98 4 -146 28 -32 15 -76 45
-100 66 l-43 38 33 6 c27 6 40 1 78 -28 121 -93 285 -84 402 21 84 76 133 180
133 285 0 51 3 59 18 59 16 0 19 -8 19 -62z m-777 36 c3 -3 4 -14 1 -25 -9
-32 -97 -23 -106 12 -5 17 1 19 47 19 29 0 55 -3 58 -6z m62 -21 c-4 -10 -8
-35 -9 -55 0 -29 -4 -38 -17 -38 -25 0 -31 16 -23 66 5 39 9 44 32 44 20 0 24
-3 17 -17z m112 -6 c4 -3 1 -22 -6 -41 -9 -28 -17 -36 -35 -36 -13 0 -30 -3
-39 -6 -13 -5 -16 3 -16 46 l0 53 45 -6 c26 -2 48 -7 51 -10z m521 -19 c-3 -7
-5 -2 -5 12 0 14 2 19 5 13 2 -7 2 -19 0 -25z m-1768 8 c10 -12 9 -20 -4 -40
-12 -18 -14 -30 -7 -43 6 -10 13 -17 16 -15 24 10 25 -1 2 -13 -24 -13 -31
-13 -38 -3 -14 23 -8 68 11 87 16 16 17 20 5 25 -30 12 -51 -12 -68 -79 -3
-11 -3 0 -2 24 5 62 54 94 85 57z m-252 -18 c-3 -8 -6 -5 -6 6 -1 11 2 17 5
13 3 -3 4 -12 1 -19z m218 -8 c-13 -15 -16 -30 -12 -60 4 -35 3 -39 -9 -29
-27 23 -5 109 28 109 6 0 3 -9 -7 -20z m1006 -16 c16 -20 -86 -113 -160 -147
-52 -23 -85 -29 -118 -22 l-23 5 31 50 c33 54 37 55 104 23 22 -10 26 -10 15
-1 -27 23 -13 56 29 68 21 5 53 20 72 33 20 14 36 19 38 13 2 -6 8 -16 12 -22z
m29 15 c0 -11 -4 -17 -10 -14 -5 3 -10 13 -10 21 0 8 5 14 10 14 6 0 10 -9 10
-21z m590 -21 c0 -59 -94 -177 -150 -189 -26 -6 -30 -4 -30 16 0 37 10 53 30
48 10 -3 27 0 38 6 21 11 82 122 82 149 0 12 3 12 15 2 8 -7 15 -21 15 -32z
m-522 0 c-2 -28 -8 -34 -30 -36 -22 -3 -28 1 -28 17 0 35 12 51 37 51 21 0 24
-4 21 -32z m-602 14 c7 -4 14 -16 17 -27 4 -18 5 -18 6 2 2 36 47 42 79 10
l26 -26 -50 -23 c-59 -26 -172 -37 -184 -17 -6 8 4 26 28 50 37 38 56 46 78
31z m270 -17 c9 -22 -46 -111 -57 -94 -14 22 -11 62 7 87 17 25 42 29 50 7z
m-999 -62 c-2 -16 -4 -5 -4 22 0 28 2 40 4 28 2 -13 2 -35 0 -50z m1061 18 c4
-24 2 -25 -31 -10 -17 8 -23 17 -20 29 7 25 47 11 51 -19z m202 9 c0 -10 -15
-36 -32 -56 l-33 -37 43 6 c28 5 42 4 42 -4 0 -6 -17 -9 -42 -8 -33 2 -61 -6
-119 -35 -64 -31 -83 -37 -129 -34 -70 4 -76 23 -7 23 70 1 138 35 207 106 62
63 70 67 70 39z m192 -20 c-18 -17 -40 -30 -50 -31 -9 0 -51 -6 -93 -13 l-77
-12 21 28 c26 35 39 38 222 56 6 1 -5 -12 -23 -28z m-577 -9 c-19 -17 -164
-61 -202 -61 -21 0 -49 7 -61 16 -29 20 -29 39 0 23 31 -17 123 -6 193 23 55
22 94 22 70 -1z m755 -12 c-9 -47 -39 -72 -140 -120 -40 -18 -108 -23 -125 -9
-22 19 -18 53 10 73 23 17 26 17 50 1 50 -33 144 -3 184 59 13 20 25 37 26 37
1 0 -1 -18 -5 -41z m-1180 -24 c-16 -47 -23 -40 -9 9 6 21 13 36 16 33 3 -3 0
-22 -7 -42z m470 11 c0 5 5 1 11 -9 17 -29 -4 -40 -29 -16 -24 22 -20 48 4 28
8 -6 14 -8 14 -3z m453 -28 c-24 -17 -33 -31 -34 -53 0 -29 -1 -29 -11 -7 -6
12 -15 22 -20 22 -19 0 -7 40 15 44 87 19 86 19 50 -6z m-1366 -10 c-3 -8 -6
-5 -6 6 -1 11 2 17 5 13 3 -3 4 -12 1 -19z m383 -81 c0 -2 -12 -14 -27 -28
l-28 -24 24 28 c23 25 31 32 31 24z m1005 -21 c16 -4 49 -25 73 -47 24 -22 66
-52 95 -65 46 -23 48 -25 17 -19 -42 8 -160 65 -160 77 0 5 -4 7 -9 4 -8 -5
-31 17 -61 59 -13 18 -13 19 0 9 8 -6 28 -14 45 -18z m272 -62 c-3 -3 -12 -4
-19 -1 -8 3 -5 6 6 6 11 1 17 -2 13 -5z"/>
<path d="M1195 2860 c22 -45 29 -52 20 -20 -4 14 -14 32 -22 40 -12 12 -11 7
2 -20z"/>
<path d="M1221 2774 c1 -21 5 -50 9 -64 5 -16 6 -2 3 35 -7 69 -13 86 -12 29z"/>
<path d="M711 2730 c-12 -22 -20 -40 -18 -40 7 0 48 72 44 76 -2 2 -14 -14
-26 -36z"/>
<path d="M685 2669 c-4 -6 -5 -12 -2 -15 2 -3 7 2 10 11 7 17 1 20 -8 4z"/>
<path d="M1221 2645 c-1 -22 -5 -57 -10 -77 -5 -21 -5 -36 -1 -33 11 7 24 106
17 131 -3 11 -5 1 -6 -21z"/>
<path d="M661 2594 c0 -11 3 -14 6 -6 3 7 2 16 -1 19 -3 4 -6 -2 -5 -13z"/>
<path d="M640 2520 c0 -5 5 -10 10 -10 6 0 10 5 10 10 0 6 -4 10 -10 10 -5 0
-10 -4 -10 -10z"/>
<path d="M855 2560 c3 -5 8 -10 11 -10 2 0 4 5 4 10 0 6 -5 10 -11 10 -5 0 -7
-4 -4 -10z"/>
<path d="M890 2559 c0 -5 5 -7 10 -4 6 3 10 8 10 11 0 2 -4 4 -10 4 -5 0 -10
-5 -10 -11z"/>
<path d="M976 2459 c-14 -11 -26 -31 -26 -43 0 -23 0 -23 44 -8 39 14 52 15
93 4 26 -7 55 -20 64 -28 23 -21 30 -6 13 28 -33 64 -134 89 -188 47z m120
-17 c1 -7 0 -9 -2 -4 -2 5 -27 5 -56 2 -42 -6 -48 -5 -34 6 22 15 89 13 92 -4z"/>
<path d="M690 2438 c-11 -12 -20 -32 -20 -45 0 -23 1 -23 25 -7 19 13 37 15
75 10 41 -6 50 -4 50 9 0 50 -91 74 -130 33z m89 -7 c9 -6 -2 -10 -33 -12 -39
-4 -44 -2 -29 8 20 15 42 16 62 4z"/>
<path d="M997 2339 c-30 -23 -50 -84 -45 -138 4 -46 40 -81 82 -80 32 1 29 3
-16 13 -62 14 -76 131 -21 182 36 33 86 32 120 -2 23 -23 25 -31 21 -81 -3
-32 -1 -49 4 -40 24 44 1 146 -37 161 -33 12 -83 6 -108 -15z"/>
<path d="M711 2326 c-26 -28 -41 -109 -22 -120 7 -5 9 2 5 22 -14 69 55 127
99 83 l21 -21 -25 0 c-41 0 -65 -81 -39 -131 28 -51 80 -3 80 74 0 101 -64
151 -119 93z m99 -76 c0 -11 -4 -20 -10 -20 -5 0 -10 9 -10 20 0 11 5 20 10
20 6 0 10 -9 10 -20z m-16 -46 c3 -9 2 -23 -3 -32 -8 -15 -11 -14 -19 8 -5 14
-8 28 -5 33 7 12 21 8 27 -9z"/>
<path d="M1049 2284 c-18 -20 -24 -36 -23 -69 2 -105 89 -98 101 8 4 36 1 49
-16 66 -27 27 -32 26 -62 -5z m61 -30 c0 -8 -7 -14 -15 -14 -15 0 -21 21 -9
33 10 9 24 -2 24 -19z m-30 -31 c24 -21 25 -30 6 -48 -18 -18 -36 0 -36 37 0
33 3 34 30 11z"/>
<path d="M1378 2243 c-22 -26 -41 -64 -34 -70 3 -3 8 2 12 11 11 29 27 17 20
-16 -5 -31 -5 -32 9 -14 19 25 19 43 0 54 -14 7 -13 11 5 27 21 19 22 19 41
-5 20 -27 25 -21 9 11 -13 24 -42 25 -62 2z"/>
<path d="M690 2182 c0 -15 48 -62 64 -62 6 0 1 8 -11 18 -12 9 -29 26 -37 37
-9 12 -15 15 -16 7z"/>
<path d="M826 2138 c-13 -19 -14 -25 -3 -42 8 -11 20 -22 28 -24 9 -2 8 2 -3
11 -31 24 -14 73 20 60 10 -4 13 -2 8 5 -11 19 -33 14 -50 -10z"/>
<path d="M1030 2061 c-25 -15 -171 -42 -191 -36 -11 4 -19 4 -19 0 0 -17 33
-66 62 -90 27 -23 39 -26 75 -22 24 2 53 13 65 23 23 21 57 90 58 117 0 18
-25 22 -50 8z m23 -26 c7 -17 -8 -29 -23 -20 -20 12 -91 -7 -121 -32 -22 -19
-33 -23 -42 -14 -23 23 -16 41 16 42 18 0 59 9 92 19 77 23 72 22 78 5z m-9
-47 c-31 -55 -80 -77 -130 -58 l-29 11 33 30 c27 24 41 29 83 29 37 0 48 -3
43 -12z"/>
<path d="M1210 1914 c-17 -19 -90 -63 -138 -81 l-37 -14 34 6 c37 6 116 52
146 85 10 11 16 20 13 20 -3 0 -11 -7 -18 -16z"/>
<path d="M2016 1763 c-16 -9 -52 -24 -80 -35 -35 -13 -41 -18 -19 -14 35 6
166 64 143 64 -8 0 -28 -7 -44 -15z"/>
<path d="M1371 1543 c7 -12 15 -20 18 -17 3 2 -3 12 -13 22 -17 16 -18 16 -5
-5z"/>
<path d="M1365 1360 c-27 -7 -27 -8 -5 -8 14 0 36 4 50 8 20 6 21 8 5 8 -11 0
-33 -4 -50 -8z"/>
<path d="M1245 1350 c19 -8 93 -14 84 -6 -2 2 -26 6 -54 9 -32 4 -43 3 -30 -3z"/>
<path d="M2070 1296 c0 -4 11 -21 25 -38 14 -16 25 -25 25 -19 0 12 -49 69
-50 57z"/>
<path d="M1874 1265 c-23 -7 -52 -20 -65 -30 -19 -14 -20 -16 -4 -10 11 4 40
15 65 24 52 18 55 20 49 25 -2 2 -23 -2 -45 -9z"/>
<path d="M2075 1030 c32 -35 117 -80 150 -80 11 0 -7 11 -39 25 -32 13 -77 38
-100 56 l-41 32 30 -33z"/>
<path d="M1024 1168 l-19 -23 23 19 c21 18 27 26 19 26 -2 0 -12 -10 -23 -22z"/>
<path d="M1001 1124 c0 -11 3 -14 6 -6 3 7 2 16 -1 19 -3 4 -6 -2 -5 -13z"/>
<path d="M1265 800 c-16 -7 -17 -9 -3 -9 9 -1 20 4 23 9 7 11 7 11 -20 0z"/>
<path d="M1193 793 c9 -2 25 -2 35 0 9 3 1 5 -18 5 -19 0 -27 -2 -17 -5z"/>
<path d="M697 1239 c7 -7 15 -10 18 -7 3 3 -2 9 -12 12 -14 6 -15 5 -6 -5z"/>
<path d="M428 1153 c7 -3 16 -2 19 1 4 3 -2 6 -13 5 -11 0 -14 -3 -6 -6z"/>
<path d="M97 833 c-10 -35 -19 -108 -13 -102 4 4 11 31 15 60 9 54 7 77 -2 42z"/>
<path d="M82 605 c0 -16 2 -22 5 -12 2 9 2 23 0 30 -3 6 -5 -1 -5 -18z"/>
<path d="M1876 967 c3 -10 9 -15 12 -12 3 3 0 11 -7 18 -10 9 -11 8 -5 -6z"/>
<path d="M310 905 c17 -25 33 -45 36 -45 3 0 -9 20 -26 45 -17 25 -33 45 -36
45 -3 0 9 -20 26 -45z"/>
<path d="M220 829 c26 -17 90 -50 90 -45 0 5 -90 56 -99 56 -3 0 1 -5 9 -11z"/>
<path d="M519 739 c-10 -6 -2 -9 25 -9 40 0 45 8 9 14 -11 3 -26 0 -34 -5z"/>
<path d="M245 685 c-27 -8 -54 -14 -59 -15 -5 0 -7 -2 -4 -5 7 -7 100 15 113
26 11 11 12 11 -50 -6z"/>
<path d="M513 654 c21 -14 41 -24 43 -21 5 5 -62 47 -74 47 -4 0 11 -12 31
-26z"/>
<path d="M432 618 c3 -7 13 -37 23 -66 9 -29 19 -52 21 -49 5 5 -36 127 -43
127 -3 0 -3 -6 -1 -12z"/>
<path d="M336 544 c-22 -87 -14 -94 9 -9 9 36 15 68 13 71 -3 3 -13 -25 -22
-62z"/>
<path d="M2034 838 l-29 -33 33 29 c30 28 37 36 29 36 -2 0 -16 -15 -33 -32z"/>
<path d="M2055 760 c-13 -6 -1 -7 35 -3 30 3 57 7 59 9 9 8 -75 2 -94 -6z"/>
<path d="M2020 685 c0 -7 81 -47 86 -43 2 3 -17 14 -41 26 -25 12 -45 20 -45
17z"/>
<path d="M1803 505 c-3 -9 -3 -18 -1 -21 3 -3 8 4 11 16 6 23 -1 27 -10 5z"/>
<path d="M1891 494 c0 -11 3 -14 6 -6 3 7 2 16 -1 19 -3 4 -6 -2 -5 -13z"/>
<path d="M1880 805 c-7 -20 -10 -39 -7 -41 3 -3 10 11 17 31 7 20 10 39 7 41
-3 3 -10 -11 -17 -31z"/>
<path d="M2120 2650 c-18 -5 -8 -8 35 -11 59 -5 92 -17 150 -55 16 -10 26 -13
22 -7 -25 41 -155 86 -207 73z"/>
<path d="M1961 2409 c-45 -40 -75 -51 -64 -24 4 12 -4 10 -30 -7 -47 -30 -46
-41 1 -32 53 10 109 40 128 69 26 39 13 37 -35 -6z"/>
<path d="M2226 2400 c11 -43 52 -106 81 -125 28 -18 28 -17 -3 16 -18 19 -44
57 -58 84 -15 28 -24 39 -20 25z"/>
<path d="M1650 2327 c-14 -7 -27 -21 -29 -32 -3 -20 -3 -20 18 -1 21 19 66 19
116 1 20 -8 20 -8 0 13 -26 26 -74 35 -105 19z"/>
<path d="M1943 2313 c-29 -20 -32 -49 -4 -33 28 14 81 12 130 -5 49 -17 53 -6
10 29 -36 30 -100 35 -136 9z"/>
<path d="M1946 2209 c-28 -22 -61 -77 -52 -86 3 -3 10 6 15 19 13 35 58 68 93
68 44 0 88 -48 89 -97 1 -37 1 -37 11 -10 5 15 14 27 19 27 6 0 8 4 4 9 -3 5
-1 12 5 16 5 3 10 11 10 17 0 6 -6 6 -15 -2 -19 -16 -34 -5 -17 12 17 17 15
33 -2 19 -11 -9 -21 -7 -48 9 -42 26 -78 25 -112 -1z"/>
<path d="M1998 2170 c-41 -24 -46 -130 -8 -150 25 -13 70 4 77 30 3 11 9 18
13 15 8 -5 8 0 -4 57 -7 29 -31 58 -49 58 -7 0 -20 -5 -29 -10z m65 -66 c-3
-8 -9 -14 -14 -14 -14 0 -22 27 -14 48 6 16 7 16 20 -1 8 -11 11 -25 8 -33z
m-33 -26 c22 -14 15 -38 -11 -38 -26 0 -33 22 -23 68 7 35 8 35 12 9 2 -15 12
-33 22 -39z"/>
<path d="M1468 2082 c-28 -45 -35 -129 -15 -168 18 -34 64 -80 73 -72 3 3 7
32 9 64 2 39 1 52 -5 39 -5 -11 -9 -33 -9 -48 -1 -38 -21 -24 -22 16 l-1 32
-7 -30 c-7 -30 -7 -30 -15 -6 -9 27 -10 107 -1 121 3 4 -1 11 -7 13 -8 4 -7 6
4 6 9 1 20 6 24 13 5 8 2 9 -10 5 -14 -6 -15 -3 -6 13 6 11 13 20 16 20 3 0 2
-4 -1 -10 -3 -5 -2 -10 3 -10 6 0 13 7 16 16 8 21 8 21 -9 21 -9 0 -25 -16
-37 -35z"/>
<path d="M2283 2098 c-25 -28 -43 -62 -43 -80 1 -7 8 0 16 15 15 28 34 28 34
0 0 -9 -8 -25 -17 -35 -14 -16 -14 -18 -1 -13 8 3 21 18 27 32 10 21 9 29 -6
45 -15 17 -15 21 -3 28 22 14 38 12 49 -7 6 -10 11 -13 11 -6 0 13 -27 43 -39
43 -4 0 -17 -10 -28 -22z"/>
<path d="M1887 2079 c8 -17 16 -37 17 -46 3 -19 62 -53 91 -52 14 0 9 4 -14
13 -39 14 -81 59 -81 85 0 11 -6 21 -14 24 -11 5 -11 0 1 -24z"/>
<path d="M1767 2022 c-22 -25 -21 -45 3 -67 11 -10 20 -13 20 -7 0 6 -4 14
-10 17 -15 9 -12 36 7 57 9 10 12 18 6 18 -5 0 -17 -8 -26 -18z"/>
<path d="M1890 1909 c-42 -23 -89 -24 -116 -4 -29 22 -43 17 -15 -5 15 -13 38
-20 68 -20 45 0 103 23 103 40 0 6 -1 9 -2 9 -2 -1 -19 -10 -38 -20z"/>
</g>
</svg>
